<?xml version="1.0" standalone="no"?>
<!DOCTYPE svg PUBLIC "-//W3C//DTD SVG 20010904//EN"
 "http://www.w3.org/TR/2001/REC-SVG-20010904/DTD/svg10.dtd">
<svg version="1.0" xmlns="http://www.w3.org/2000/svg"
 width="159.000000pt" height="156.000000pt" viewBox="0 0 159.000000 156.000000"
 preserveAspectRatio="xMidYMid meet">

<g transform="translate(0.000000,156.000000) scale(0.100000,-0.100000)"
fill="#000000" stroke="none">
<path d="M1 1283 l0 -278 23 60 c31 85 68 148 129 220 94 112 265 223 397 259
52 14 37 15 -247 15 l-303 1 1 -277z"/>
<path d="M990 1536 c108 -33 126 -41 216 -101 135 -90 225 -198 286 -345 48
-112 61 -183 61 -310 0 -365 -243 -669 -608 -761 l-70 -18 358 0 357 -1 0 780
0 780 -337 -1 -338 0 75 -23z"/>
<path d="M572 1510 c-41 -11 -115 -39 -165 -63 -78 -37 -103 -56 -164 -120
-144 -152 -203 -274 -224 -467 -25 -220 45 -427 202 -595 145 -154 325 -229
549 -227 137 1 229 22 345 79 63 30 98 57 171 130 81 80 99 105 147 202 73
147 96 260 79 401 -25 213 -112 381 -264 510 -78 66 -126 93 -229 132 -78 29
-95 32 -229 35 -120 2 -158 0 -218 -17z m168 -890 c0 -24 -3 -24 -55 0 l-40
19 48 0 c41 1 47 -2 47 -19z"/>
<path d="M1 283 l-1 -283 323 1 322 0 -75 23 c-41 12 -84 27 -95 33 -11 6 -42
20 -69 32 -161 72 -318 243 -382 414 l-23 62 0 -282z"/>
</g>
</svg>
